<mxfile host="app.diagrams.net" agent="Mozilla/5.0 (Windows NT 10.0; Win64; x64) AppleWebKit/537.36 (KHTML, like Gecko) Chrome/140.0.0.0 Safari/537.36" version="28.2.5">
  <diagram name="Page-1" id="8XZrPGwu7_zcWPPO6sV7">
    <mxGraphModel dx="1426" dy="777" grid="1" gridSize="10" guides="1" tooltips="1" connect="1" arrows="1" fold="1" page="1" pageScale="1" pageWidth="850" pageHeight="1100" background="light-dark(#FFFFFF,#040404)" math="0" shadow="0">
      <root>
        <mxCell id="0" />
        <mxCell id="1" parent="0" />
        <mxCell id="e_QkirkJFeGs8wLd4IRr-3" value="" style="whiteSpace=wrap;html=1;movable=1;resizable=1;rotatable=1;deletable=1;editable=1;locked=0;connectable=1;" vertex="1" parent="1">
          <mxGeometry x="33" y="40" width="750" height="630" as="geometry" />
        </mxCell>
        <mxCell id="e_QkirkJFeGs8wLd4IRr-8" style="edgeStyle=orthogonalEdgeStyle;rounded=0;orthogonalLoop=1;jettySize=auto;html=1;" edge="1" parent="1" source="e_QkirkJFeGs8wLd4IRr-2" target="e_QkirkJFeGs8wLd4IRr-5">
          <mxGeometry relative="1" as="geometry" />
        </mxCell>
        <mxCell id="e_QkirkJFeGs8wLd4IRr-2" value="Github&lt;div&gt;&lt;br&gt;&lt;/div&gt;" style="verticalLabelPosition=bottom;html=1;verticalAlign=top;align=center;strokeColor=none;fillColor=#00BEF2;shape=mxgraph.azure.github_code;pointerEvents=1;" vertex="1" parent="1">
          <mxGeometry x="108" y="407.12" width="50" height="50" as="geometry" />
        </mxCell>
        <mxCell id="e_QkirkJFeGs8wLd4IRr-9" style="edgeStyle=orthogonalEdgeStyle;rounded=0;orthogonalLoop=1;jettySize=auto;html=1;" edge="1" parent="1" source="e_QkirkJFeGs8wLd4IRr-5" target="e_QkirkJFeGs8wLd4IRr-31">
          <mxGeometry relative="1" as="geometry">
            <mxPoint x="355" y="432.0999999999999" as="targetPoint" />
          </mxGeometry>
        </mxCell>
        <mxCell id="e_QkirkJFeGs8wLd4IRr-5" value="AWS CodeBuild" style="sketch=0;outlineConnect=0;fontColor=#232F3E;gradientColor=none;strokeColor=#ffffff;fillColor=#232F3E;dashed=0;verticalLabelPosition=middle;verticalAlign=bottom;align=center;html=1;whiteSpace=wrap;fontSize=10;fontStyle=1;spacing=3;shape=mxgraph.aws4.productIcon;prIcon=mxgraph.aws4.codebuild;" vertex="1" parent="1">
          <mxGeometry x="222" y="384" width="70" height="96.25" as="geometry" />
        </mxCell>
        <mxCell id="e_QkirkJFeGs8wLd4IRr-31" value="Amazon ECR" style="sketch=0;outlineConnect=0;fontColor=#232F3E;gradientColor=none;strokeColor=#ffffff;fillColor=#232F3E;dashed=0;verticalLabelPosition=middle;verticalAlign=bottom;align=center;html=1;whiteSpace=wrap;fontSize=10;fontStyle=1;spacing=3;shape=mxgraph.aws4.productIcon;prIcon=mxgraph.aws4.ecr;" vertex="1" parent="1">
          <mxGeometry x="368" y="383" width="80" height="100" as="geometry" />
        </mxCell>
        <mxCell id="e_QkirkJFeGs8wLd4IRr-34" style="edgeStyle=orthogonalEdgeStyle;rounded=0;orthogonalLoop=1;jettySize=auto;html=1;" edge="1" parent="1" source="e_QkirkJFeGs8wLd4IRr-33" target="e_QkirkJFeGs8wLd4IRr-31">
          <mxGeometry relative="1" as="geometry" />
        </mxCell>
        <mxCell id="e_QkirkJFeGs8wLd4IRr-33" value="AWS App Runner" style="sketch=0;points=[[0,0,0],[0.25,0,0],[0.5,0,0],[0.75,0,0],[1,0,0],[0,1,0],[0.25,1,0],[0.5,1,0],[0.75,1,0],[1,1,0],[0,0.25,0],[0,0.5,0],[0,0.75,0],[1,0.25,0],[1,0.5,0],[1,0.75,0]];outlineConnect=0;fontColor=#232F3E;fillColor=#ED7100;strokeColor=#ffffff;dashed=0;verticalLabelPosition=bottom;verticalAlign=top;align=center;html=1;fontSize=12;fontStyle=0;aspect=fixed;shape=mxgraph.aws4.resourceIcon;resIcon=mxgraph.aws4.app_runner;" vertex="1" parent="1">
          <mxGeometry x="98" y="536" width="78" height="78" as="geometry" />
        </mxCell>
        <mxCell id="e_QkirkJFeGs8wLd4IRr-4" value="Frontend" style="text;html=1;align=center;verticalAlign=middle;resizable=0;points=[];autosize=1;strokeColor=none;fillColor=none;" vertex="1" parent="1">
          <mxGeometry x="33" y="50" width="70" height="30" as="geometry" />
        </mxCell>
        <mxCell id="e_QkirkJFeGs8wLd4IRr-7" value="Amazon Cloudfront" style="sketch=0;outlineConnect=0;fontColor=#232F3E;gradientColor=none;strokeColor=#ffffff;fillColor=#232F3E;dashed=0;verticalLabelPosition=middle;verticalAlign=bottom;align=center;html=1;whiteSpace=wrap;fontSize=10;fontStyle=1;spacing=3;shape=mxgraph.aws4.productIcon;prIcon=mxgraph.aws4.cloudfront;" vertex="1" parent="1">
          <mxGeometry x="182" y="138" width="80" height="110" as="geometry" />
        </mxCell>
        <mxCell id="e_QkirkJFeGs8wLd4IRr-21" style="edgeStyle=orthogonalEdgeStyle;rounded=0;orthogonalLoop=1;jettySize=auto;html=1;" edge="1" parent="1" source="e_QkirkJFeGs8wLd4IRr-12" target="e_QkirkJFeGs8wLd4IRr-7">
          <mxGeometry relative="1" as="geometry" />
        </mxCell>
        <mxCell id="e_QkirkJFeGs8wLd4IRr-12" value="User" style="html=1;verticalLabelPosition=bottom;align=center;labelBackgroundColor=#ffffff;verticalAlign=top;strokeWidth=2;strokeColor=#0080F0;shadow=0;dashed=0;shape=mxgraph.ios7.icons.user;" vertex="1" parent="1">
          <mxGeometry x="63" y="118" width="30" height="30" as="geometry" />
        </mxCell>
        <mxCell id="e_QkirkJFeGs8wLd4IRr-18" style="edgeStyle=orthogonalEdgeStyle;rounded=0;orthogonalLoop=1;jettySize=auto;html=1;" edge="1" parent="1" source="e_QkirkJFeGs8wLd4IRr-13" target="e_QkirkJFeGs8wLd4IRr-7">
          <mxGeometry relative="1" as="geometry" />
        </mxCell>
        <mxCell id="e_QkirkJFeGs8wLd4IRr-13" value="User" style="html=1;verticalLabelPosition=bottom;align=center;labelBackgroundColor=#ffffff;verticalAlign=top;strokeWidth=2;strokeColor=#0080F0;shadow=0;dashed=0;shape=mxgraph.ios7.icons.user;" vertex="1" parent="1">
          <mxGeometry x="63" y="178" width="30" height="30" as="geometry" />
        </mxCell>
        <mxCell id="e_QkirkJFeGs8wLd4IRr-19" style="edgeStyle=orthogonalEdgeStyle;rounded=0;orthogonalLoop=1;jettySize=auto;html=1;" edge="1" parent="1" source="e_QkirkJFeGs8wLd4IRr-14" target="e_QkirkJFeGs8wLd4IRr-7">
          <mxGeometry relative="1" as="geometry" />
        </mxCell>
        <mxCell id="e_QkirkJFeGs8wLd4IRr-14" value="User" style="html=1;verticalLabelPosition=bottom;align=center;labelBackgroundColor=#ffffff;verticalAlign=top;strokeWidth=2;strokeColor=#0080F0;shadow=0;dashed=0;shape=mxgraph.ios7.icons.user;" vertex="1" parent="1">
          <mxGeometry x="63" y="246" width="30" height="30" as="geometry" />
        </mxCell>
        <mxCell id="e_QkirkJFeGs8wLd4IRr-25" value="" style="group" vertex="1" connectable="0" parent="1">
          <mxGeometry x="403" y="66.87" width="319" height="96.25" as="geometry" />
        </mxCell>
        <mxCell id="e_QkirkJFeGs8wLd4IRr-26" style="edgeStyle=orthogonalEdgeStyle;rounded=0;orthogonalLoop=1;jettySize=auto;html=1;" edge="1" parent="e_QkirkJFeGs8wLd4IRr-25" source="e_QkirkJFeGs8wLd4IRr-27" target="e_QkirkJFeGs8wLd4IRr-29">
          <mxGeometry relative="1" as="geometry" />
        </mxCell>
        <mxCell id="e_QkirkJFeGs8wLd4IRr-27" value="Github&lt;div&gt;&lt;br&gt;&lt;/div&gt;" style="verticalLabelPosition=bottom;html=1;verticalAlign=top;align=center;strokeColor=none;fillColor=#00BEF2;shape=mxgraph.azure.github_code;pointerEvents=1;" vertex="1" parent="e_QkirkJFeGs8wLd4IRr-25">
          <mxGeometry y="23.120000000000005" width="50" height="50" as="geometry" />
        </mxCell>
        <mxCell id="e_QkirkJFeGs8wLd4IRr-28" style="edgeStyle=orthogonalEdgeStyle;rounded=0;orthogonalLoop=1;jettySize=auto;html=1;" edge="1" parent="e_QkirkJFeGs8wLd4IRr-25" source="e_QkirkJFeGs8wLd4IRr-29" target="e_QkirkJFeGs8wLd4IRr-30">
          <mxGeometry relative="1" as="geometry" />
        </mxCell>
        <mxCell id="e_QkirkJFeGs8wLd4IRr-29" value="AWS CodeBuild" style="sketch=0;outlineConnect=0;fontColor=#232F3E;gradientColor=none;strokeColor=#ffffff;fillColor=#232F3E;dashed=0;verticalLabelPosition=middle;verticalAlign=bottom;align=center;html=1;whiteSpace=wrap;fontSize=10;fontStyle=1;spacing=3;shape=mxgraph.aws4.productIcon;prIcon=mxgraph.aws4.codebuild;" vertex="1" parent="e_QkirkJFeGs8wLd4IRr-25">
          <mxGeometry x="114" width="70" height="96.25" as="geometry" />
        </mxCell>
        <mxCell id="e_QkirkJFeGs8wLd4IRr-30" value="Amazon S3" style="sketch=0;outlineConnect=0;fontColor=#232F3E;gradientColor=none;strokeColor=#ffffff;fillColor=#232F3E;dashed=0;verticalLabelPosition=middle;verticalAlign=bottom;align=center;html=1;whiteSpace=wrap;fontSize=10;fontStyle=1;spacing=3;shape=mxgraph.aws4.productIcon;prIcon=mxgraph.aws4.s3;" vertex="1" parent="e_QkirkJFeGs8wLd4IRr-25">
          <mxGeometry x="247" y="3.1200000000000045" width="72" height="90" as="geometry" />
        </mxCell>
        <mxCell id="e_QkirkJFeGs8wLd4IRr-16" style="edgeStyle=orthogonalEdgeStyle;rounded=0;orthogonalLoop=1;jettySize=auto;html=1;" edge="1" parent="1" source="e_QkirkJFeGs8wLd4IRr-7" target="e_QkirkJFeGs8wLd4IRr-30">
          <mxGeometry relative="1" as="geometry">
            <Array as="points">
              <mxPoint x="676" y="185" />
            </Array>
          </mxGeometry>
        </mxCell>
        <mxCell id="e_QkirkJFeGs8wLd4IRr-36" value="Backend" style="text;html=1;align=center;verticalAlign=middle;resizable=0;points=[];autosize=1;strokeColor=none;fillColor=none;" vertex="1" parent="1">
          <mxGeometry x="43" y="340" width="70" height="30" as="geometry" />
        </mxCell>
        <mxCell id="e_QkirkJFeGs8wLd4IRr-24" value="AWS DocumentDB&lt;div&gt;(MongoDB)&lt;/div&gt;" style="sketch=0;points=[[0,0,0],[0.25,0,0],[0.5,0,0],[0.75,0,0],[1,0,0],[0,1,0],[0.25,1,0],[0.5,1,0],[0.75,1,0],[1,1,0],[0,0.25,0],[0,0.5,0],[0,0.75,0],[1,0.25,0],[1,0.5,0],[1,0.75,0]];outlineConnect=0;fontColor=#232F3E;fillColor=#C925D1;strokeColor=#ffffff;dashed=0;verticalLabelPosition=bottom;verticalAlign=top;align=center;html=1;fontSize=12;fontStyle=0;aspect=fixed;shape=mxgraph.aws4.resourceIcon;resIcon=mxgraph.aws4.documentdb_with_mongodb_compatibility;" vertex="1" parent="1">
          <mxGeometry x="553" y="470" width="78" height="78" as="geometry" />
        </mxCell>
      </root>
    </mxGraphModel>
  </diagram>
</mxfile>
